<svg width="593" height="595" viewBox="0 0 593 595" fill="none" xmlns="http://www.w3.org/2000/svg">
<path d="M0 337.433L3.67977 336.938C12.3381 401.072 41.1887 459.237 87.0776 505.126C158.168 576.216 259.346 605.871 357.711 584.411L358.515 588.06C258.914 609.798 156.468 579.772 84.4801 507.785C37.9727 461.278 8.78197 402.37 0 337.433Z" fill="#8CB3AB"/>
<path d="M84.4488 86.9925C200.439 -28.9975 389.189 -28.9975 505.179 86.9925C621.169 202.983 621.169 391.733 505.179 507.723L502.551 505.095C617.088 390.558 617.088 204.158 502.551 89.6209C388.014 -24.9157 201.614 -24.9157 87.0772 89.6209C52.475 124.223 26.8712 167.174 13.1108 213.805L9.55469 212.754C23.5007 165.535 49.3828 122.059 84.4488 86.9925Z" fill="#8CB3AB"/>
<path d="M232.444 35.8777C324.036 14.1083 418.411 40.8253 484.895 107.309L479.638 112.565C415.01 47.9374 323.232 21.9626 234.176 43.1135L232.444 35.8777Z" fill="#8CB3AB"/>
<path d="M104.765 107.309C125.607 86.4669 149.417 69.3359 175.608 56.3794L178.917 63.0586C153.468 75.644 130.307 92.3112 110.053 112.565C14.8427 207.776 7.143 358.12 92.1178 462.298L86.3663 466.998C-1.08237 359.883 6.83378 205.24 104.765 107.309Z" fill="#8CB3AB"/>
<path d="M141.902 509.362C191.657 545.356 252.976 562.61 314.573 557.972C376.82 553.272 435.418 526.369 479.606 482.181C515.26 446.528 539.719 401.721 550.264 352.616C562.571 295.41 555.273 235.049 529.701 182.667L536.38 179.389C562.695 233.256 570.209 295.317 557.531 354.162C546.677 404.659 521.537 450.733 484.832 487.407C439.376 532.863 379.108 560.539 315.068 565.362C251.739 570.125 188.657 552.375 137.48 515.361L141.902 509.362Z" fill="#8CB3AB"/>
<path d="M157.549 160.093C233.247 84.3951 356.411 84.3951 432.109 160.093C462.754 190.737 481.864 229.576 487.368 272.434L479.977 273.393C474.659 232.173 456.291 194.85 426.822 165.381C354.03 92.5896 235.597 92.5896 162.806 165.381C149.88 178.307 138.996 192.933 130.399 208.858L123.844 205.333C132.78 188.727 144.098 173.544 157.549 160.093Z" fill="#8CB3AB"/>
<path d="M100.87 288.854L108.322 289.163C106.034 341.36 125.917 392.444 162.808 429.366C188.813 455.371 221.498 472.966 257.368 480.264L255.884 487.562C218.592 479.955 184.577 461.649 157.551 434.623C119.145 396.248 98.4888 343.123 100.87 288.854Z" fill="#8CB3AB"/>
<path d="M316.028 482.861C358.33 478.038 396.643 459.546 426.823 429.397C453.262 402.958 471.012 369.623 478.093 333.042L485.39 334.465C478.031 372.499 459.601 407.163 432.08 434.653C400.694 466.04 360.866 485.243 316.863 490.252L316.028 482.861Z" fill="#8CB3AB"/>
<path d="M181.113 183.687C199.605 165.195 222.487 151.373 247.287 143.735L248.369 147.291C224.126 154.775 201.769 168.257 183.71 186.315C133.863 236.162 123.35 313.716 158.138 374.911L154.891 376.736C119.33 314.087 130.091 234.709 181.113 183.687Z" fill="#8CB3AB"/>
<path d="M294.784 136.592C337.735 136.592 378.12 153.321 408.517 183.687C471.196 246.367 471.196 348.38 408.517 411.06C345.837 473.739 243.824 473.739 181.144 411.06L183.772 408.431C244.999 469.658 344.662 469.658 405.888 408.431C467.115 347.205 467.115 247.542 405.888 186.315C376.203 156.63 336.777 140.303 294.815 140.303V136.592H294.784Z" fill="#8CB3AB"/>
<path d="M224.095 226.669C263.088 187.676 326.541 187.676 365.534 226.669C404.527 265.662 404.527 329.115 365.534 368.108L360.277 362.852C396.363 326.765 396.363 268.043 360.277 231.926C324.19 195.839 265.469 195.839 229.382 231.926C193.296 268.012 193.296 326.734 229.382 362.821L224.125 368.078C185.101 329.084 185.101 265.662 224.095 226.669Z" fill="#8CB3AB"/>
<path d="M259.657 262.23C279.045 242.842 310.586 242.842 329.943 262.23L327.315 264.858C309.38 246.923 280.22 246.923 262.285 264.858C244.35 282.793 244.35 311.953 262.285 329.888C280.22 347.823 309.38 347.823 327.315 329.888C337.272 319.931 342.065 306.202 340.488 292.194L344.199 291.761C345.899 306.882 340.704 321.756 329.943 332.517C310.555 351.905 279.014 351.905 259.657 332.517C240.299 313.128 240.299 281.618 259.657 262.23Z" fill="#8CB3AB"/>
</svg>
